# xmcd CD database file
#
# Track frame offsets:
#	150
#	11666
#	21346
#	34573
#	44193
#	52672
#	63215
#	76054
#	83686
#	93913
#	107530
#	117583
#	129850
#	137938
#	148391
#	156946
#
# Disc length: 2229 seconds
#
# Revision: 0
# Processed by: cddbd v1.4PL0 Copyright (c) Steve Scherf et al.
# Submitted via: Feurio! 1.63 - http://www.feurio.com
#
DISCID=cf08b310
DTITLE=Gary Cook - Train Classics
DYEAR=2000
DGENRE=
TTITLE0=Orange Blossom Special
TTITLE1=Wabash Cannonball
TTITLE2=Chatanooga Choo Choo
TTITLE3=Nine Pound Hammer
TTITLE4=Wreck Of The Old '97
TTITLE5=John Henry
TTITLE6=City Of New Orleans
TTITLE7=Moving On
TTITLE8=Choo Choo Cha Boogie
TTITLE9=Waiting For A Train
TTITLE10=Freight Train Boogie
TTITLE11=Glendale Train
TTITLE12=Freight Train
TTITLE13=Take The "A" Train
TTITLE14=Night Train To Memphis
TTITLE15=Life's Railway To Heaven
EXTD=
EXTT0=
EXTT1=
EXTT2=
EXTT3=
EXTT4=
EXTT5=
EXTT6=
EXTT7=
EXTT8=
EXTT9=
EXTT10=
EXTT11=
EXTT12=
EXTT13=
EXTT14=
EXTT15=
PLAYORDER=
